<?xml version="1.0" encoding="utf-8"?>
<!-- Generator: Adobe Illustrator 21.0.0, SVG Export Plug-In . SVG Version: 6.00 Build 0)  -->
<svg version="1.1" id="Capa_1" xmlns="http://www.w3.org/2000/svg" xmlns:xlink="http://www.w3.org/1999/xlink" x="0px" y="0px"
	 viewBox="0 0 464 464" style="enable-background:new 0 0 464 464;" xml:space="preserve">
<style type="text/css">
	.st0{fill:#3BACFB;}
	.st1{fill:url(#SVGID_1_);}
	.st2{fill:url(#SVGID_2_);}
	.st3{fill:url(#SVGID_3_);}
	.st4{fill:url(#SVGID_4_);}
	.st5{fill:url(#SVGID_5_);}
	.st6{fill:url(#SVGID_6_);}
	.st7{fill:url(#SVGID_7_);}
	.st8{fill:url(#SVGID_8_);}
</style>
<path class="st0" d="M420.5,124.8L378.1,104v352l59.2-296C440.5,145.6,433.3,131.2,420.5,124.8z"/>
<linearGradient id="SVGID_1_" gradientUnits="userSpaceOnUse" x1="18.1" y1="234" x2="445.9519" y2="234" gradientTransform="matrix(1 0 0 -1 0 466)">
	<stop  offset="0" style="stop-color:#023B92"/>
	<stop  offset="1" style="stop-color:#0189C1"/>
</linearGradient>
<path class="st1" d="M423.7,85.6l-38.4-19.2C382.9,47.2,366.1,32,346.1,32H161.3c-4-18.4-20-32-39.2-32h-32
	c-19.2,0-36,14.4-39.2,32.8C32.5,36,18.1,52.8,18.1,72v352c0,22.4,17.6,40,40,40h288c21.6,0,40-16.8,40-38.4l0,0l59.2-296
	C448.5,112,439.7,93.6,423.7,85.6z M90.1,16h32c10.4,0,19.2,6.4,22.4,16H67.7C70.9,22.4,79.7,16,90.1,16z M370.1,424
	c0,13.6-10.4,24-24,24h-88v-24c0-4.8-3.2-8-8-8s-8,3.2-8,8v24h-48v-24c0-4.8-3.2-8-8-8s-8,3.2-8,8v24h-80v-24c0-4.8-3.2-8-8-8
	s-8,3.2-8,8v24h-24c-13.6,0-24-10.4-24-24V72c0-13.6,10.4-24,24-24h88v152c0,13.6-10.4,24-24,24s-24-10.4-24-24V72c0-4.8-3.2-8-8-8
	s-8,3.2-8,8v128c0,22.4,17.6,40,40,40s40-17.6,40-40V48h184c13.6,0,24,10.4,24,24V424z M429.3,126.4l-43.2,216.8V84.8l30.4,15.2
	C426.1,104.8,431.7,116,429.3,126.4z"/>
<linearGradient id="SVGID_2_" gradientUnits="userSpaceOnUse" x1="210.1" y1="362" x2="322.1" y2="362" gradientTransform="matrix(1 0 0 -1 0 466)">
	<stop  offset="0" style="stop-color:#023B92"/>
	<stop  offset="1" style="stop-color:#0189C1"/>
</linearGradient>
<path class="st2" d="M314.1,96h-96c-4.8,0-8,3.2-8,8s3.2,8,8,8h96c4.8,0,8-3.2,8-8S318.9,96,314.1,96z"/>
<linearGradient id="SVGID_3_" gradientUnits="userSpaceOnUse" x1="210.1" y1="298" x2="322.1" y2="298" gradientTransform="matrix(1 0 0 -1 0 466)">
	<stop  offset="0" style="stop-color:#023B92"/>
	<stop  offset="1" style="stop-color:#0189C1"/>
</linearGradient>
<path class="st3" d="M314.1,160h-96c-4.8,0-8,3.2-8,8s3.2,8,8,8h96c4.8,0,8-3.2,8-8S318.9,160,314.1,160z"/>
<linearGradient id="SVGID_4_" gradientUnits="userSpaceOnUse" x1="210.1" y1="266" x2="322.1" y2="266" gradientTransform="matrix(1 0 0 -1 0 466)">
	<stop  offset="0" style="stop-color:#023B92"/>
	<stop  offset="1" style="stop-color:#0189C1"/>
</linearGradient>
<path class="st4" d="M314.1,192h-96c-4.8,0-8,3.2-8,8s3.2,8,8,8h96c4.8,0,8-3.2,8-8S318.9,192,314.1,192z"/>
<linearGradient id="SVGID_5_" gradientUnits="userSpaceOnUse" x1="210.1" y1="330" x2="258.1" y2="330" gradientTransform="matrix(1 0 0 -1 0 466)">
	<stop  offset="0" style="stop-color:#023B92"/>
	<stop  offset="1" style="stop-color:#0189C1"/>
</linearGradient>
<path class="st5" d="M218.1,144h32c4.8,0,8-3.2,8-8s-3.2-8-8-8h-32c-4.8,0-8,3.2-8,8S213.3,144,218.1,144z"/>
<linearGradient id="SVGID_6_" gradientUnits="userSpaceOnUse" x1="274.1" y1="330" x2="322.1" y2="330" gradientTransform="matrix(1 0 0 -1 0 466)">
	<stop  offset="0" style="stop-color:#023B92"/>
	<stop  offset="1" style="stop-color:#0189C1"/>
</linearGradient>
<path class="st6" d="M314.1,128h-32c-4.8,0-8,3.2-8,8s3.2,8,8,8h32c4.8,0,8-3.2,8-8S318.9,128,314.1,128z"/>
<linearGradient id="SVGID_7_" gradientUnits="userSpaceOnUse" x1="238.6" y1="319" x2="318.6" y2="319">
	<stop  offset="0" style="stop-color:#023B92"/>
	<stop  offset="1" style="stop-color:#0189C1"/>
</linearGradient>
<path class="st7" d="M305,289.4l-42.4,42.4l-10.4-10.4c-3.2-3.2-8-3.2-11.2,0s-3.2,8,0,11.2l16,16c1.6,1.6,4,2.4,5.6,2.4
	s4-0.8,5.6-2.4l48-48c3.2-3.2,3.2-8,0-11.2C313,286.2,308.2,286.2,305,289.4z"/>
<linearGradient id="SVGID_8_" gradientUnits="userSpaceOnUse" x1="182.6" y1="317.5" x2="363.6" y2="317.5">
	<stop  offset="0" style="stop-color:#023B92"/>
	<stop  offset="1" style="stop-color:#0189C1"/>
</linearGradient>
<path class="st8" d="M273.1,408c50.1,0,90.5-40.4,90.5-90.5S323.2,227,273.1,227s-90.5,40.4-90.5,90.5S222.9,408,273.1,408z
	 M273.1,240.9c42.5,0,76.6,34.1,76.6,76.6s-34.1,76.6-76.6,76.6s-76.6-34.1-76.6-76.6S230.6,240.9,273.1,240.9z"/>
</svg>
