<?xml version="1.0" encoding="utf-8"?>
<!-- Generator: Adobe Illustrator 21.0.0, SVG Export Plug-In . SVG Version: 6.00 Build 0)  -->
<svg version="1.1" id="Capa_1" xmlns="http://www.w3.org/2000/svg" xmlns:xlink="http://www.w3.org/1999/xlink" x="0px" y="0px"
	 viewBox="0 0 488 488" style="enable-background:new 0 0 488 488;" xml:space="preserve">
<style type="text/css">
	.st0{fill:#3BACFB;}
	.st1{fill:url(#SVGID_1_);}
	.st2{fill:url(#SVGID_2_);}
	.st3{fill:url(#SVGID_3_);}
	.st4{fill:url(#SVGID_4_);}
</style>
<path class="st0" d="M372,456V72c0-17.6-14.4-32-32-32H148c-17.6,0-32,14.4-32,32v384c0,17.6,14.4,32,32,32h192
	C357.6,488,372,473.6,372,456z"/>
<g>
	<linearGradient id="SVGID_1_" gradientUnits="userSpaceOnUse" x1="108" y1="232" x2="380" y2="232">
		<stop  offset="0" style="stop-color:#023B92"/>
		<stop  offset="1" style="stop-color:#0189C1"/>
	</linearGradient>
	<path class="st1" d="M340,464c22.4,0,40-17.6,40-40V40c0-22.4-17.6-40-40-40H148c-22.4,0-40,17.6-40,40v384c0,22.4,17.6,40,40,40
		H340z M288.8,16l-8.8,8.8c-4.8,4.8-11.2,7.2-17.6,7.2h-37.6c-6.4,0-12.8-2.4-16.8-7.2l-8.8-8.8C199.2,16,288.8,16,288.8,16z
		 M125.6,432H340c4.8,0,8-3.2,8-8s-3.2-8-8-8H124V40c0-13.6,10.4-24,24-24h28.8l20,20c8,8,17.6,12,28.8,12h37.6c10.4,0,20.8-4,28-12
		l20-20H340c13.6,0,24,10.4,24,24v384c0,13.6-10.4,24-24,24H148C137.6,448,128.8,441.6,125.6,432z"/>
	<linearGradient id="SVGID_2_" gradientUnits="userSpaceOnUse" x1="204" y1="232" x2="284" y2="232">
		<stop  offset="0" style="stop-color:#023B92"/>
		<stop  offset="1" style="stop-color:#0189C1"/>
	</linearGradient>
	<path class="st2" d="M270.4,194.4l-64,64c-3.2,3.2-3.2,8,0,11.2c1.6,1.6,4,2.4,5.6,2.4s4-0.8,5.6-2.4l64-64c3.2-3.2,3.2-8,0-11.2
		S273.6,191.2,270.4,194.4z"/>
	<linearGradient id="SVGID_3_" gradientUnits="userSpaceOnUse" x1="204" y1="216" x2="252" y2="216">
		<stop  offset="0" style="stop-color:#023B92"/>
		<stop  offset="1" style="stop-color:#0189C1"/>
	</linearGradient>
	<path class="st3" d="M212,240c2.4,0,4-0.8,5.6-2.4l32-32c3.2-3.2,3.2-8,0-11.2s-8-3.2-11.2,0l-32,32c-3.2,3.2-3.2,8,0,11.2
		C208,239.2,209.6,240,212,240z"/>
	<linearGradient id="SVGID_4_" gradientUnits="userSpaceOnUse" x1="236" y1="248" x2="284" y2="248">
		<stop  offset="0" style="stop-color:#023B92"/>
		<stop  offset="1" style="stop-color:#0189C1"/>
	</linearGradient>
	<path class="st4" d="M270.4,226.4l-32,32c-3.2,3.2-3.2,8,0,11.2c1.6,1.6,4,2.4,5.6,2.4s4-0.8,5.6-2.4l32-32c3.2-3.2,3.2-8,0-11.2
		S273.6,223.2,270.4,226.4z"/>
</g>
</svg>
