<svg id="Capa_1" xmlns="http://www.w3.org/2000/svg" viewBox="0 0 294.8 294.8">
    <style>
        .st0{fill:#727070}
    </style>
    <path class="st0" d="M147.4 0C66.1 0 0 66.1 0 147.4c0 41 17.3 80.4 47.4 108.3 2.4 2.3 6.2 2.1 8.5-.3s2.1-6.2-.3-8.5C27.9 221.3 12 185.1 12 147.4 12 72.8 72.8 12 147.4 12s135.4 60.8 135.4 135.4S222 282.8 147.4 282.8c-3.3 0-6 2.7-6 6s2.7 6 6 6c81.3 0 147.4-66.1 147.4-147.4S228.7 0 147.4 0z"/>
    <path class="st0" d="M84.2 124.4h126.5c3.3 0 6-2.7 6-6s-2.7-6-6-6H84.2c-3.3 0-6 2.7-6 6s2.7 6 6 6z"/>
    <path class="st0" d="M216.7 181.7c0-3.3-2.7-6-6-6H84.2c-3.3 0-6 2.7-6 6s2.7 6 6 6h126.5c3.3 0 6-2.7 6-6z"/>
</svg>
