<?xml version="1.0" encoding="utf-8"?>
<!-- Generator: Adobe Illustrator 21.0.0, SVG Export Plug-In . SVG Version: 6.00 Build 0)  -->
<svg version="1.1" id="Capa_1" xmlns="http://www.w3.org/2000/svg" xmlns:xlink="http://www.w3.org/1999/xlink" x="0px" y="0px"
	 viewBox="0 0 464.1 464.1" style="enable-background:new 0 0 464.1 464.1;" xml:space="preserve">
<style type="text/css">
	.st0{fill:#3BACFB;}
	.st1{fill:url(#SVGID_1_);}
	.st2{fill:url(#SVGID_2_);}
	.st3{fill:url(#SVGID_3_);}
	.st4{fill:url(#SVGID_4_);}
	.st5{fill:url(#SVGID_5_);}
	.st6{fill:url(#SVGID_6_);}
	.st7{fill:url(#SVGID_7_);}
</style>
<circle class="st0" cx="328.1" cy="168" r="128"/>
<g>
	<linearGradient id="SVGID_1_" gradientUnits="userSpaceOnUse" x1="-9.545547e-05" y1="360.036" x2="459.8721" y2="360.036">
		<stop  offset="0" style="stop-color:#023B92"/>
		<stop  offset="1" style="stop-color:#0189C1"/>
	</linearGradient>
	<path class="st1" d="M452.1,306.4c-11.2-12-30.4-12-41.6,0c-8.8,9.6-19.2,15.2-31.2,18.4L273.7,344c1.6-4.8,1.6-9.6,0.8-14.4
		c-1.6-9.6-7.2-17.6-15.2-21.6l-65.6-37.6c-16-8.8-35.2-9.6-51.2-0.8L91.3,296l-11.2-33.6c-1.6-4-4.8-6.4-8-6.4h-64
		c-2.4,0-4.8,1.6-6.4,3.2c-1.6,2.4-2.4,4.8-0.8,7.2l64,192c0.8,3.2,4,5.6,7.2,5.6h64c2.4,0,4.8-1.6,6.4-3.2c1.6-2.4,1.6-4.8,0.8-7.2
		L125.7,400h4.8l88.8,31.2c0.8,0,1.6,0.8,2.4,0.8c0.8,0,0.8,0,1.6,0l116.8-20.8c42.4-8,81.6-28.8,112-61.6
		C462.5,337.6,462.5,318.4,452.1,306.4z M77.7,448L19.3,272h47.2l58.4,176H77.7z M440.1,338.4c-28,30.4-64,49.6-103.2,56.8
		L222.5,416l-88-31.2c-0.8,0-1.6-0.8-2.4-0.8h-11.2l-24.8-73.6c0,0,0,0,0.8,0l53.6-27.2c11.2-5.6,24.8-5.6,36,0.8l65.6,37.6
		c4,2.4,6.4,5.6,7.2,10.4c0.8,4.8-0.8,9.6-4,12.8c-1.6,1.6-3.2,2.4-4.8,3.2l-4.8,0.8c-0.8,0-2.4,0-3.2-0.8l-77.6-27.2
		c-4-1.6-8.8,0.8-10.4,4.8c-1.6,4,0.8,8.8,4.8,10.4l77.6,27.2c3.2,0.8,6.4,1.6,9.6,1.6c0.8,0,0.8,0,1.6,0l0,0h0.8
		c1.6,0,3.2-0.8,4.8-0.8l128.8-23.2c15.2-3.2,28.8-11.2,40-22.4c4.8-5.6,13.6-5.6,18.4,0C445.7,323.2,445.7,332.8,440.1,338.4z"/>
	<linearGradient id="SVGID_2_" gradientUnits="userSpaceOnUse" x1="192.0721" y1="136.036" x2="464.0721" y2="136.036">
		<stop  offset="0" style="stop-color:#023B92"/>
		<stop  offset="1" style="stop-color:#0189C1"/>
	</linearGradient>
	<path class="st2" d="M328.1,0c-75.2,0-136,60.8-136,136s60.8,136,136,136s136-60.8,136-136S403.3,0,328.1,0z M328.1,256
		c-66.4,0-120-53.6-120-120s53.6-120,120-120s120,53.6,120,120S394.5,256,328.1,256z"/>
	<linearGradient id="SVGID_3_" gradientUnits="userSpaceOnUse" x1="224.0721" y1="136.036" x2="432.0721" y2="136.036">
		<stop  offset="0" style="stop-color:#023B92"/>
		<stop  offset="1" style="stop-color:#0189C1"/>
	</linearGradient>
	<path class="st3" d="M328.1,32c-57.6,0-104,46.4-104,104s46.4,104,104,104s104-46.4,104-104S385.7,32,328.1,32z M328.1,224
		c-48.8,0-88-39.2-88-88s39.2-88,88-88s88,39.2,88,88S376.9,224,328.1,224z"/>
	<linearGradient id="SVGID_4_" gradientUnits="userSpaceOnUse" x1="288.0721" y1="136.036" x2="368.0721" y2="136.036">
		<stop  offset="0" style="stop-color:#023B92"/>
		<stop  offset="1" style="stop-color:#0189C1"/>
	</linearGradient>
	<path class="st4" d="M354.5,98.4l-64,64c-3.2,3.2-3.2,8,0,11.2c1.6,1.6,4,2.4,5.6,2.4s4-0.8,5.6-2.4l64-64c3.2-3.2,3.2-8,0-11.2
		S357.7,95.2,354.5,98.4z"/>
	<linearGradient id="SVGID_5_" gradientUnits="userSpaceOnUse" x1="288.0721" y1="120.036" x2="336.0721" y2="120.036">
		<stop  offset="0" style="stop-color:#023B92"/>
		<stop  offset="1" style="stop-color:#0189C1"/>
	</linearGradient>
	<path class="st5" d="M296.1,144c2.4,0,4-0.8,5.6-2.4l32-32c3.2-3.2,3.2-8,0-11.2s-8-3.2-11.2,0l-32,32c-3.2,3.2-3.2,8,0,11.2
		C292.1,143.2,293.7,144,296.1,144z"/>
	<linearGradient id="SVGID_6_" gradientUnits="userSpaceOnUse" x1="320.0721" y1="152.036" x2="368.0721" y2="152.036">
		<stop  offset="0" style="stop-color:#023B92"/>
		<stop  offset="1" style="stop-color:#0189C1"/>
	</linearGradient>
	<path class="st6" d="M354.5,130.4l-32,32c-3.2,3.2-3.2,8,0,11.2c1.6,1.6,4,2.4,5.6,2.4s4-0.8,5.6-2.4l32-32c3.2-3.2,3.2-8,0-11.2
		S357.7,127.2,354.5,130.4z"/>
	<linearGradient id="SVGID_7_" gradientUnits="userSpaceOnUse" x1="88.0721" y1="424.036" x2="104.0721" y2="424.036">
		<stop  offset="0" style="stop-color:#023B92"/>
		<stop  offset="1" style="stop-color:#0189C1"/>
	</linearGradient>
	<circle class="st7" cx="96.1" cy="424" r="8"/>
</g>
</svg>
