<?xml version="1.0" encoding="utf-8"?>
<!-- Generator: Adobe Illustrator 21.0.0, SVG Export Plug-In . SVG Version: 6.00 Build 0)  -->
<svg version="1.1" id="Capa_1" xmlns="http://www.w3.org/2000/svg" xmlns:xlink="http://www.w3.org/1999/xlink" x="0px" y="0px"
	 viewBox="0 0 464 464" style="enable-background:new 0 0 464 464;" xml:space="preserve">
<style type="text/css">
	.st0{fill:#3BACFB;}
	.st1{fill:url(#SVGID_1_);}
	.st2{fill:url(#SVGID_2_);}
	.st3{fill:url(#SVGID_3_);}
	.st4{fill:url(#SVGID_4_);}
	.st5{fill:url(#SVGID_5_);}
</style>
<circle class="st0" cx="248" cy="200" r="96"/>
<g>
	<linearGradient id="SVGID_1_" gradientUnits="userSpaceOnUse" x1="16" y1="232" x2="448" y2="232">
		<stop  offset="0" style="stop-color:#023B92"/>
		<stop  offset="1" style="stop-color:#0189C1"/>
	</linearGradient>
	<path class="st1" d="M40,400h9.6c-0.8,2.4-1.6,4.8-1.6,8v32c0,13.6,10.4,24,24,24h352c13.6,0,24-10.4,24-24v-32
		c0-13.6-10.4-24-24-24h-9.6c0.8-2.4,1.6-4.8,1.6-8v-32c0-13.6-10.4-24-24-24h-72.8c17.6-8,33.6-19.2,47.2-32.8c0,0,0,0,0.8,0
		s0,0,0-0.8C397.6,256,416,214.4,416,168s-18.4-88-48.8-118.4c0,0,0,0,0-0.8s0,0-0.8,0C336,18.4,294.4,0,248,0s-88,18.4-118.4,48.8
		c0,0,0,0-0.8,0c0,0,0,0,0,0.8C98.4,80,80,121.6,80,168s18.4,88,48.8,118.4c0,0,0,0,0,0.8c0,0,0,0,0.8,0
		c13.6,13.6,29.6,24.8,47.2,32.8H40c-13.6,0-24,10.4-24,24v32C16,389.6,26.4,400,40,400z M432,408v32c0,4.8-3.2,8-8,8H320v-24
		c0-4.8-3.2-8-8-8s-8,3.2-8,8v24H192v-24c0-4.8-3.2-8-8-8s-8,3.2-8,8v24H72c-4.8,0-8-3.2-8-8v-32c0-4.8,3.2-8,8-8h40v24
		c0,4.8,3.2,8,8,8s8-3.2,8-8v-24h112v24c0,4.8,3.2,8,8,8s8-3.2,8-8v-24h112v24c0,4.8,3.2,8,8,8s8-3.2,8-8v-24h8h32
		C428.8,400,432,403.2,432,408z M163.2,252.8c-3.2-3.2-8-3.2-11.2,0l-16.8,16.8C112.8,244.8,98.4,212,96.8,176H120c4.8,0,8-3.2,8-8
		s-3.2-8-8-8H96.8c1.6-36,16-68.8,38.4-93.6L152,83.2c1.6,1.6,4,2.4,5.6,2.4s4-0.8,5.6-2.4c3.2-3.2,3.2-8,0-11.2l-16.8-16.8
		C171.2,32.8,204,18.4,240,16.8V40c0,4.8,3.2,8,8,8s8-3.2,8-8V16.8c36,1.6,68.8,16,93.6,38.4L332.8,72c-3.2,3.2-3.2,8,0,11.2
		c1.6,1.6,4,2.4,5.6,2.4s4-0.8,5.6-2.4l16.8-16.8c22.4,24.8,36.8,57.6,38.4,93.6H376c-4.8,0-8,3.2-8,8s3.2,8,8,8h23.2
		c-1.6,36-16,68.8-38.4,93.6L344,252.8c-3.2-3.2-8-3.2-11.2,0s-3.2,8,0,11.2l16.8,16.8c-24.8,22.4-57.6,36.8-93.6,38.4V296
		c0-4.8-3.2-8-8-8s-8,3.2-8,8v23.2c-36-1.6-68.8-16-93.6-38.4l16.8-16.8C166.4,260.8,166.4,256,163.2,252.8z M32,344
		c0-4.8,3.2-8,8-8h40v24c0,4.8,3.2,8,8,8s8-3.2,8-8v-24h112v24c0,4.8,3.2,8,8,8s8-3.2,8-8v-24h112v24c0,4.8,3.2,8,8,8s8-3.2,8-8v-24
		h40c4.8,0,8,3.2,8,8v32c0,4.8-3.2,8-8,8H288v-24c0-4.8-3.2-8-8-8s-8,3.2-8,8v24H160v-24c0-4.8-3.2-8-8-8s-8,3.2-8,8v24H72H40
		c-4.8,0-8-3.2-8-8V344z"/>
	<linearGradient id="SVGID_2_" gradientUnits="userSpaceOnUse" x1="144" y1="168" x2="352" y2="168">
		<stop  offset="0" style="stop-color:#023B92"/>
		<stop  offset="1" style="stop-color:#0189C1"/>
	</linearGradient>
	<path class="st2" d="M248,272c57.6,0,104-46.4,104-104S305.6,64,248,64s-104,46.4-104,104S190.4,272,248,272z M248,80
		c48.8,0,88,39.2,88,88s-39.2,88-88,88s-88-39.2-88-88S199.2,80,248,80z"/>
	<linearGradient id="SVGID_3_" gradientUnits="userSpaceOnUse" x1="208" y1="168" x2="288" y2="168">
		<stop  offset="0" style="stop-color:#023B92"/>
		<stop  offset="1" style="stop-color:#0189C1"/>
	</linearGradient>
	<path class="st3" d="M216,208c2.4,0,4-0.8,5.6-2.4l64-64c3.2-3.2,3.2-8,0-11.2s-8-3.2-11.2,0l-64,64c-3.2,3.2-3.2,8,0,11.2
		C212,207.2,213.6,208,216,208z"/>
	<linearGradient id="SVGID_4_" gradientUnits="userSpaceOnUse" x1="208" y1="152" x2="256" y2="152">
		<stop  offset="0" style="stop-color:#023B92"/>
		<stop  offset="1" style="stop-color:#0189C1"/>
	</linearGradient>
	<path class="st4" d="M216,176c2.4,0,4-0.8,5.6-2.4l32-32c3.2-3.2,3.2-8,0-11.2s-8-3.2-11.2,0l-32,32c-3.2,3.2-3.2,8,0,11.2
		C212,175.2,213.6,176,216,176z"/>
	<linearGradient id="SVGID_5_" gradientUnits="userSpaceOnUse" x1="240" y1="184" x2="288" y2="184">
		<stop  offset="0" style="stop-color:#023B92"/>
		<stop  offset="1" style="stop-color:#0189C1"/>
	</linearGradient>
	<path class="st5" d="M274.4,162.4l-32,32c-3.2,3.2-3.2,8,0,11.2c1.6,1.6,4,2.4,5.6,2.4s4-0.8,5.6-2.4l32-32c3.2-3.2,3.2-8,0-11.2
		S277.6,159.2,274.4,162.4z"/>
</g>
</svg>
